<?xml version="1.0" encoding="UTF-8" standalone="no"?>
<!-- Generator: Adobe Illustrator 13.0.2, SVG Export Plug-In . SVG Version: 6.00 Build 14948)  -->

<svg
   version="1.0"
   id="Layer_1"
   x="0px"
   y="0px"
   width="64px"
   height="64px"
   viewBox="5.5 -3.5 64 64"
   enable-background="new 5.5 -3.5 64 64"
   xml:space="preserve"
   sodipodi:docname="cc.svg"
   inkscape:version="1.1.1 (3bf5ae0d25, 2021-09-20)"
   xmlns:inkscape="http://www.inkscape.org/namespaces/inkscape"
   xmlns:sodipodi="http://sodipodi.sourceforge.net/DTD/sodipodi-0.dtd"
   xmlns="http://www.w3.org/2000/svg"
   xmlns:svg="http://www.w3.org/2000/svg"><defs
   id="defs11" /><sodipodi:namedview
   id="namedview9"
   pagecolor="#ffffff"
   bordercolor="#666666"
   borderopacity="1.0"
   inkscape:pageshadow="2"
   inkscape:pageopacity="0.0"
   inkscape:pagecheckerboard="0"
   showgrid="false"
   inkscape:zoom="12.96875"
   inkscape:cx="31.961446"
   inkscape:cy="32"
   inkscape:current-layer="Layer_1" />

<path
   style="display:inline;fill:#c2c2c2;fill-opacity:1;stroke-width:0.408675;stroke-linejoin:round;stroke-miterlimit:10"
   d="M 30.573494,63.911975 C 23.935335,63.661452 17.584979,61.272878 12.260126,57.023729 5.2925264,51.463692 1.0199826,43.698559 0.18976692,35.08646 0.05387219,33.676779 0.03590213,30.578392 0.15595716,29.257001 0.7307628,22.930377 3.0891583,17.071588 7.0599074,12.106024 11.066453,7.0956953 16.167055,3.450886 21.73888,1.6166644 24.975235,0.55126951 28.112059,0.07361002 31.884337,0.07176581 c 3.746779,-0.0018317 6.447341,0.37507714 9.783542,1.36545759 5.819951,1.7277027 11.444091,5.5936733 15.46468,10.6302466 3.815864,4.780114 6.07711,10.466217 6.680823,16.799518 0.176535,1.851946 0.115648,5.736911 -0.116776,7.451084 -0.819417,6.043378 -2.861184,10.935706 -6.436094,15.421687 -0.967129,1.213603 -3.560576,3.808142 -4.826777,4.828811 -4.117456,3.319028 -8.641078,5.525144 -13.571084,6.618451 -2.797153,0.620314 -5.288472,0.838199 -8.289157,0.724954 z m 4.780723,-5.960852 c 5.905268,-0.828309 11.101232,-3.381512 15.373359,-7.55419 3.677879,-3.592265 5.963106,-7.715809 6.947708,-12.536692 C 58.98857,31.430027 58.070449,24.782875 55.125698,19.401386 52.135804,13.937398 46.987061,9.4470462 41.271809,7.3190515 36.785231,5.6485371 31.262525,5.2842052 26.244674,6.3277142 20.563777,7.5091095 15.537005,10.697505 11.600782,15.616085 8.8596079,19.041369 7.0043636,22.978841 6.2141519,27.048382 c -0.6191922,3.1888 -0.6207604,6.762678 -0.00432,9.848004 1.6971495,8.494361 7.7111501,15.827323 15.7727771,19.231985 2.556875,1.079843 4.922971,1.652042 8.128235,1.965671 0.728463,0.07128 4.436939,-0.0298 5.243374,-0.142919 z"
   id="path943"
   transform="translate(5.5,-3.5)" /><path
   style="display:inline;fill:#c2c2c2;fill-opacity:1;stroke-width:0.408675;stroke-linejoin:round;stroke-miterlimit:10"
   d="m 39.826506,41.747461 c -3.453516,-0.607877 -5.932085,-2.733197 -6.961281,-5.969148 -0.807379,-2.538525 -0.691639,-5.915862 0.282961,-8.256956 0.95751,-2.300044 3.044829,-4.207132 5.424676,-4.956277 0.996666,-0.313739 1.883295,-0.43496 3.181355,-0.43496 2.878997,0 5.098718,0.825691 6.786474,2.524431 0.621859,0.625906 1.554515,1.930615 1.449007,2.027042 -0.199378,0.182217 -3.80801,2.002744 -3.96982,2.002744 -0.154774,0 -0.252882,-0.09245 -0.47051,-0.443373 -0.51703,-0.833708 -1.123761,-1.336089 -2.050697,-1.698005 -0.431942,-0.168648 -0.635604,-0.199711 -1.320358,-0.201384 -2.084925,-0.0051 -3.400136,1.047821 -3.932862,3.148519 -0.372792,1.470028 -0.369272,3.547804 0.0083,4.910385 0.358237,1.292744 1.18333,2.43259 2.075763,2.867618 1.268302,0.61825 3.109841,0.539605 4.239142,-0.181036 0.582279,-0.371571 1.356333,-1.295261 1.565207,-1.867784 0.02708,-0.07422 0.119525,-0.13494 0.205441,-0.13494 0.190743,0 3.781159,1.783286 3.781159,1.878025 0,0.125497 -0.677526,1.087014 -1.184012,1.680301 -0.932147,1.091894 -2.522599,2.192394 -3.876453,2.682275 -1.114531,0.403285 -2.014105,0.545844 -3.395021,0.538022 -0.672976,-0.0038 -1.498665,-0.05568 -1.83849,-0.115499 z"
   id="path1241"
   transform="translate(5.5,-3.5)" /><path
   style="display:inline;fill:#c2c2c2;fill-opacity:1;stroke-width:0.408675;stroke-linejoin:round;stroke-miterlimit:10"
   d="m 21.551807,41.783855 c -1.738785,-0.252631 -3.313643,-0.951793 -4.62011,-2.051108 -1.557621,-1.310648 -2.604404,-3.303886 -2.987871,-5.689374 -0.148646,-0.924701 -0.124968,-3.37538 0.04135,-4.279518 0.466587,-2.536499 1.656662,-4.502363 3.590186,-5.930564 1.131929,-0.836101 2.349857,-1.338613 3.853922,-1.59011 1.158302,-0.193682 3.269156,-0.124492 4.412938,0.144648 2.340892,0.550829 4.060657,1.71763 5.324657,3.612595 0.204741,0.306945 0.361194,0.593984 0.347672,0.637865 -0.04019,0.130428 -3.776426,2.042114 -3.995154,2.044164 -0.16301,0.0015 -0.254092,-0.08399 -0.480991,-0.451593 -0.774692,-1.255101 -2.224733,-2.021958 -3.605704,-1.906883 -2.091742,0.174303 -3.250137,1.272612 -3.74067,3.54664 -0.163092,0.756071 -0.224541,2.554126 -0.115231,3.371814 0.12896,0.964687 0.279192,1.491295 0.629728,2.207395 0.636712,1.300719 1.595594,2.015203 2.945281,2.194593 1.883653,0.250361 3.418943,-0.474528 4.328235,-2.043582 0.164627,-0.284075 0.348429,-0.5165 0.40845,-0.5165 0.118617,0 3.361743,1.616667 3.604901,1.797009 0.143036,0.106085 0.13115,0.13696 -0.306144,0.795235 -1.421939,2.140497 -3.70895,3.647082 -6.194198,4.080473 -0.709715,0.123764 -2.668856,0.139022 -3.441244,0.0268 z"
   id="path1280"
   transform="translate(5.5,-3.5)" /></svg>
