<?xml version="1.0" encoding="UTF-8" standalone="no"?>
<!-- Created with Inkscape (http://www.inkscape.org/) -->

<svg
   width="133.08594mm"
   height="132.8208mm"
   viewBox="0 0 133.08594 132.8208"
   version="1.1"
   id="svg967"
   inkscape:version="1.1.1 (3bf5ae0d25, 2021-09-20)"
   sodipodi:docname="liberty-2.svg"
   xmlns:inkscape="http://www.inkscape.org/namespaces/inkscape"
   xmlns:sodipodi="http://sodipodi.sourceforge.net/DTD/sodipodi-0.dtd"
   xmlns="http://www.w3.org/2000/svg"
   xmlns:svg="http://www.w3.org/2000/svg">
  <sodipodi:namedview
     id="namedview969"
     pagecolor="#ffffff"
     bordercolor="#666666"
     borderopacity="1.0"
     inkscape:pageshadow="2"
     inkscape:pageopacity="0.0"
     inkscape:pagecheckerboard="0"
     inkscape:document-units="mm"
     showgrid="false"
     inkscape:zoom="0.73940797"
     inkscape:cx="233.29475"
     inkscape:cy="339.46077"
     inkscape:current-layer="layer1" />
  <defs
     id="defs964" />
  <g
     inkscape:label="Layer 1"
     inkscape:groupmode="layer"
     id="layer1"
     transform="translate(-43.428646,-58.83055)">
    <path
       style="fill:#000000;stroke-width:0.264583"
       d="m 50.957246,191.00194 c -0.35719,-0.35719 -0.64944,-0.89357 -0.64944,-1.19195 0,-0.29839 5.95313,-9.47102 13.22917,-20.38362 10.30894,-15.46134 13.22917,-20.02109 13.22917,-20.65652 0,-0.54849 -0.25319,-1.06862 -0.7734,-1.58883 -0.80568,-0.80568 -1.4081,-0.93684 -2.46218,-0.53608 -0.42558,0.1618 -4.32468,5.76634 -12.2542,17.61408 -6.39651,9.55722 -11.65619,17.21926 -11.68818,17.02675 -0.032,-0.19251 -0.36067,-4.33862 -0.73041,-9.21357 -0.36974,-4.87494 -0.71783,-9.066 -0.77354,-9.31346 -0.071,-0.31522 3.79017,-4.03811 12.89721,-12.43541 16.96332,-15.64132 15.7847,-14.4822 15.7847,-15.5236 0,-0.47427 -0.12844,-1.1023 -0.28542,-1.39562 -0.36343,-0.67908 -1.6814,-1.23925 -2.53279,-1.0765 -0.39891,0.0763 -6.09887,5.15125 -14.51514,12.92362 -7.62206,7.03893 -13.95877,12.79806 -14.08157,12.79806 -0.1228,0 -0.60562,-0.63087 -1.07293,-1.40192 l -0.84965,-1.40192 v -11.15003 -11.15003 l 3.88506,-7.75482 3.88506,-7.75482 0.31247,2.38125 c 0.17186,1.30969 0.48913,2.79797 0.70505,3.30729 1.69477,3.99769 6.7736,5.46289 10.54603,3.04244 0.57437,-0.36853 4.25737,-4.82512 9.38866,-11.36071 l 8.44355,-10.75431 5.21732,15.64947 c 2.86953,8.60721 5.41885,15.95705 5.66517,16.33298 0.48237,0.73618 6.28921,7.50673 21.491154,25.05784 5.93387,6.85084 9.92162,11.24064 10.39825,11.44664 1.53456,0.66321 3.14139,-0.47397 3.14139,-2.22323 0,-0.71932 -0.3343,-1.27499 -1.72948,-2.87473 -0.95122,-1.09068 -1.66489,-1.98306 -1.58595,-1.98306 0.0789,0 4.04214,1.94757 8.80709,4.32793 4.76495,2.38036 9.30432,4.47959 10.08747,4.66496 1.58492,0.37514 4.0429,0.2337 6.69649,-0.38534 1.53825,-0.35885 1.69353,-0.35246 2.19153,0.0902 0.29478,0.26203 3.81019,3.37124 7.81202,6.90935 4.00182,3.5381 7.50776,6.65003 7.79099,6.9154 0.50902,0.47694 0.50617,0.50086 -0.24709,2.07686 l -0.76204,1.59437 H 127.40383 89.238806 l 0.61143,-1.12448 c 3.59471,-6.61102 15.226324,-29.0858 15.226324,-29.42052 0,-2.13292 -2.89572,-3.2535 -4.17137,-1.61424 -0.25236,0.32429 -4.209314,7.69055 -8.793214,16.36946 l -8.33438,15.77982 -8.30923,0.005 c -7.89097,0.005 -8.28895,-0.0183 -7.90613,-0.45804 3.31551,-3.80828 27.81457,-33.87005 27.9999,-34.35752 0.56266,-1.4799 -0.62369,-3.01487 -2.33012,-3.01487 -0.70893,0 -1.11816,0.2072 -1.75026,0.8862 -0.45375,0.48741 -7.49249,8.99769 -15.64166,18.91173 l -14.81666,18.02553 -4.70838,0.006 c -4.64994,0.006 -4.71644,-0.002 -5.35781,-0.64346 z m 111.832104,-12.79293 -6.44867,-5.71161 9.32961,-1.92207 c 9.73083,-2.00473 10.3146,-2.05262 10.3146,-0.84611 0,0.50196 -6.14749,13.63093 -6.56559,14.02188 -0.0997,0.0932 -3.08318,-2.40071 -6.62995,-5.54209 z m -19.61279,-8.42929 c -0.3638,-0.0571 -5.57822,-2.56563 -11.5876,-5.57459 -10.40729,-5.21105 -11.01037,-5.47621 -12.69962,-5.58377 -2.29711,-0.14627 -2.5865,-0.5076 -2.46845,-3.08216 0.0468,-1.02055 0.14456,-1.95244 0.21727,-2.07088 0.0727,-0.11844 0.87112,0.4942 1.77425,1.36143 3.06388,2.94209 6.79307,4.89753 10.93967,5.73633 2.03844,0.41235 2.32719,0.41235 4.36563,0 4.17527,-0.8446 7.99975,-2.85247 10.95845,-5.75324 l 1.6319,-1.59994 0.1478,1.16142 c 0.0813,0.63879 0.33054,3.89986 0.55388,7.24684 0.22334,3.34698 0.45624,6.46899 0.51755,6.93781 0.10327,0.78961 0.0397,0.87232 -0.86285,1.123 -0.96001,0.26664 -2.19119,0.30114 -3.48788,0.0977 z m 8.9824,-2.40387 c -0.007,-0.5457 -0.33924,-5.42675 -0.73745,-10.84678 l -0.72402,-9.8546 0.67927,-1.52249 c 0.3736,-0.83736 0.80805,-1.82014 0.96545,-2.18394 0.26147,-0.60434 0.79329,0.35205 6.15869,11.07536 3.22988,6.45524 5.82542,11.78391 5.76786,11.84146 -0.0828,0.0828 -11.69585,2.48318 -12.01359,2.48318 -0.0455,0 -0.0888,-0.44649 -0.0962,-0.99219 z m 7.88746,-21.05116 -5.22286,-10.39539 0.68183,-3.02907 c 0.37501,-1.66598 0.70123,-3.04188 0.72494,-3.05754 0.18845,-0.12448 3.70549,0.41246 3.8763,0.59179 0.27085,0.28435 8.73451,22.27826 8.73451,22.69774 0,0.28521 -3.17939,3.59772 -3.4467,3.59101 -0.0688,-0.002 -2.47546,-4.68107 -5.34802,-10.39854 z m -30.87235,9.32865 c -4.13762,-1.08244 -7.88624,-3.55974 -10.33556,-6.83033 -3.21901,-4.29836 -6.62417,-13.01135 -7.51079,-19.21831 l -0.15144,-1.06022 1.47171,-0.77054 c 3.00569,-1.57368 5.71211,-5.12946 6.51804,-8.5636 0.27117,-1.15551 0.44447,-1.42565 0.99094,-1.54471 3.5901,-0.78219 6.53534,-2.41732 9.2312,-5.12497 l 1.97603,-1.98468 2.13587,2.12348 c 2.36064,2.34696 4.56404,3.66092 7.75471,4.62438 1.87947,0.56754 1.91986,0.59839 2.19628,1.67796 1.00748,3.93469 3.316,6.98277 6.77488,8.94528 l 1.36085,0.77212 -0.50359,2.30445 c -3.35316,15.34432 -9.6414,23.61812 -19.01914,25.02459 -0.52229,0.0783 -1.78233,-0.0851 -2.88999,-0.3749 z m 6.04469,-7.28486 c 1.07117,-0.90133 1.14541,-2.4473 0.16462,-3.42809 -0.61975,-0.61975 -0.79952,-0.64943 -3.93307,-0.64943 -2.87428,0 -3.36684,0.0654 -3.95104,0.52498 -0.83959,0.66042 -1.11471,1.7137 -0.7056,2.70138 0.51299,1.23848 1.35279,1.51371 4.65478,1.52554 2.80198,0.01 2.99874,-0.0252 3.77031,-0.67438 z m -1.56164,-7.12526 c 1.2262,-1.1097 0.82075,-3.22449 -0.74716,-3.89705 -0.39248,-0.16836 -0.74585,-0.32417 -0.78527,-0.34624 -0.0394,-0.0221 0.28802,-1.51303 0.72761,-3.31323 0.43959,-1.8002 0.79926,-3.60891 0.79926,-4.01936 0,-1.8375 -2.66252,-2.77409 -3.96,-1.39299 -0.67253,0.71587 -2.37678,7.11006 -2.38534,8.94954 -0.0118,2.52999 2.32437,4.80986 4.70243,4.58917 0.62437,-0.058 1.36618,-0.31438 1.64847,-0.56984 z m -8.38869,-11.54756 c 0.87718,-0.46719 1.22255,-1.05294 1.22255,-2.07345 0,-1.02051 -0.34537,-1.60626 -1.22255,-2.07345 -0.73577,-0.39188 -6.27881,-0.40923 -7.0025,-0.0219 -0.29379,0.15724 -0.70428,0.69302 -0.91219,1.19063 -0.32906,0.78753 -0.32768,1.02526 0.0106,1.83496 0.21376,0.51162 0.66185,1.03986 0.99573,1.17386 0.89464,0.35904 6.22102,0.33543 6.90832,-0.0306 z m 19.47533,-0.37718 c 0.64755,-0.54488 0.81405,-0.89182 0.81405,-1.69627 0,-0.80446 -0.1665,-1.1514 -0.81405,-1.69628 -0.77503,-0.65214 -0.96357,-0.68497 -3.93307,-0.68497 -3.48821,0 -4.31021,0.32511 -4.64206,1.83599 -0.19049,0.86731 0.37882,2.20848 1.12094,2.64073 0.25467,0.14833 1.85288,0.27331 3.55158,0.27773 2.94244,0.008 3.12707,-0.0244 3.90261,-0.67693 z m -34.29415,21.39388 c -0.7556,-0.87014 -1.69802,-1.96737 -2.09427,-2.43829 l -0.72046,-0.85622 1.29415,-2.63026 1.29414,-2.63026 0.99857,2.16255 c 1.05411,2.28281 1.17116,3.27379 0.77397,6.55251 l -0.17227,1.42205 z m -8.63461,-9.82318 -2.305104,-2.66203 1.517924,-3.9677 1.51792,-3.9677 1.46385,-0.15841 c 3.04724,-0.32975 2.66868,-0.63391 3.36787,2.70601 l 0.62137,2.96818 -1.93937,3.87183 -1.93937,3.87184 z m -6.339934,-7.61999 c -0.58966,-1.16691 -5.55226,-16.24601 -5.39755,-16.40072 0.1201,-0.1201 7.35168,0.91679 7.52487,1.07894 0.0366,0.0342 -0.24404,1.59491 -0.62353,3.4682 -0.78648,3.88226 -0.7399,5.22318 0.23249,6.69254 l 0.66536,1.00543 -0.90957,2.3527 c -0.50026,1.29398 -0.95511,2.39824 -1.01077,2.4539 -0.0557,0.0557 -0.27225,-0.23728 -0.4813,-0.65099 z m 5.783814,-8.75584 c 0.33466,-1.89687 1.18005,-5.98338 1.25288,-6.0562 0.0403,-0.0403 1.61613,0.0534 3.50185,0.20822 1.88572,0.15482 4.58944,0.20878 6.00826,0.11992 1.41883,-0.0889 2.57969,-0.0975 2.57969,-0.0192 0,0.57676 -1.48262,2.85337 -2.39509,3.67773 -2.04954,1.85164 -5.74928,3.02933 -9.58929,3.05245 l -1.53335,0.009 0.17505,-0.99218 z m 56.23311,0.70591 c -3.16831,-0.41046 -5.57815,-1.54245 -7.26979,-3.41489 -0.95719,-1.05949 -1.96169,-2.80275 -1.73525,-3.01142 0.0625,-0.0576 2.80552,-0.15568 6.09568,-0.21806 l 5.98212,-0.11341 0.56714,3.05901 c 0.7768,4.18982 0.81147,3.99162 -0.69127,3.9515 -0.69122,-0.0184 -2.01811,-0.13218 -2.94863,-0.25273 z M 57.370586,122.05905 c -0.37482,-0.29483 -0.74593,-0.74132 -0.82467,-0.99218 -0.0787,-0.25087 -0.68194,-5.45675 -1.34045,-11.56862 -2.21333,-20.542953 -2.03268,-19.406319 -5.86119,-36.879439 -1.47148,-6.715784 -2.44941,-11.741696 -2.35662,-12.111416 0.0872,-0.347585 0.39371,-0.867069 0.68105,-1.154409 0.50532,-0.505317 0.92841,-0.522436 12.91173,-0.522436 h 12.3893 l 0.64143,0.682341 c 0.62,0.659543 0.64714,0.856243 0.81211,5.886979 0.13384,4.081387 0.37351,6.460873 1.11052,11.02547 1.73175,10.72533 3.30645,20.630962 3.39333,21.345717 0.0715,0.588307 -1.4984,2.706403 -9.27207,12.509663 -5.14699,6.4908 -9.57382,11.91686 -9.83739,12.05793 -0.76262,0.40814 -1.71044,0.29984 -2.44708,-0.2796 z m 49.429604,-8.1706 -1.31908,-0.15687 1.18679,-0.95078 c 5.22661,-4.18724 11.73627,-6.56384 19.9428,-7.28087 l 2.08726,-0.18237 -0.87736,1.64609 c -2.09291,3.9267 -6.72548,6.19536 -14.05229,6.88168 -3.14459,0.29456 -4.76929,0.30462 -6.96812,0.0431 z m 42.59408,-0.0473 c -5.54797,-0.40596 -9.49282,-1.76388 -12.07841,-4.15767 -1.46222,-1.35376 -3.10696,-3.87346 -2.75691,-4.22351 0.26757,-0.26757 5.77582,0.4524 8.48579,1.10916 5.37666,1.30304 9.5163,3.19926 12.81684,5.87095 0.86625,0.7012 1.55141,1.29191 1.52259,1.31269 -0.24851,0.1792 -5.89513,0.24166 -7.9899,0.0884 z m -56.819794,-1.52046 c -3.73109,-0.58009 -4.45696,-0.76683 -4.58822,-1.1804 -0.0858,-0.27021 -0.0959,-0.5513 -0.0226,-0.62464 0.16158,-0.16159 10.2559,-1.75477 10.34437,-1.63265 0.0343,0.0473 0.0104,1.00883 -0.0531,2.13661 -0.13615,2.41839 0.52779,2.26632 -5.68052,1.30108 z m 72.205964,-1.25689 c -0.0953,-1.12748 -0.13416,-2.08908 -0.0863,-2.1369 0.14467,-0.14466 11.53337,1.65178 11.73223,1.85063 0.41498,0.41498 -0.53027,0.66501 -5.07164,1.34151 -2.61937,0.39019 -5.13115,0.77362 -5.58172,0.85208 l -0.81923,0.14265 z m -61.55596,-2.38198 c 0,-1.26988 0.8424,-4.75561 1.62506,-6.72418 2.29105,-5.762616 7.02606,-10.394814 12.98418,-12.702237 5.58625,-2.16341 16.02315,-2.642192 23.24372,-1.066279 10.6346,2.321034 17.36047,9.424384 18.64298,19.689286 l 0.1887,1.51027 -2.08243,-1.49575 c -13.90284,-9.985999 -38.66715,-9.996842 -52.55169,-0.023 -1.97028,1.41533 -2.05052,1.4471 -2.05052,0.81189 z m -17.046414,-2.99877 c -0.0488,-0.0845 -0.6286,-1.82042 -1.28836,-3.8577 -1.03745,-3.203594 -2.00593,-7.66104 -1.72547,-7.941498 0.0501,-0.05013 3.05286,2.246484 6.67272,5.103594 3.61986,2.857114 6.47579,5.228544 6.34652,5.269864 -0.7721,0.24677 -9.93234,1.55207 -10.00541,1.42574 z m 7.52141,-9.716758 c -6.64195,-5.208953 -7.5947,-6.033077 -7.23308,-6.256568 0.18153,-0.112188 15.511824,5.47623 15.941714,5.811303 0.0603,0.04702 -0.38616,1.086133 -0.99218,2.309146 -0.60603,1.223013 -1.10187,2.347337 -1.10187,2.498497 0,0.15116 -0.0893,0.32861 -0.19844,0.39435 -0.10914,0.0657 -2.996404,-2.074793 -6.416144,-4.756728 z m 67.946384,2.094044 c -0.68319,-1.41356 -1.21897,-2.583666 -1.19063,-2.600237 0.0283,-0.01656 3.38529,-1.290915 7.45987,-2.831878 4.07458,-1.540965 7.61669,-2.882947 7.87135,-2.982182 0.3206,-0.124931 0.46303,-0.05306 0.46303,0.233662 0,0.329295 -12.47073,10.444599 -13.17524,10.686739 -0.10242,0.0352 -0.7452,-1.092544 -1.42838,-2.506104 z M 103.14254,79.137319 C 98.275226,66.602032 98.162896,66.291433 98.435646,66.122863 c 0.11546,-0.07136 0.51568,0.19344 0.88937,0.588448 0.911614,0.963603 15.007484,18.670468 15.009984,18.855148 0.001,0.07991 -0.40617,0.292872 -0.90501,0.473255 -0.49884,0.180385 -2.05761,1.097272 -3.46394,2.037527 -1.40633,0.940257 -2.58654,1.709557 -2.6227,1.709557 -0.0361,0 -1.92651,-4.792265 -4.20081,-10.649479 z m 50.89074,9.597713 c -0.77856,-0.580885 -2.29016,-1.504606 -3.35911,-2.052714 -1.21312,-0.622038 -1.89554,-1.123453 -1.81581,-1.334204 0.15073,-0.398455 13.41031,-16.905384 14.8186,-18.447773 l 0.96632,-1.058333 -0.13615,0.823591 c -0.14935,0.903406 -8.53138,22.598679 -8.8568,22.92409 -0.11082,0.110823 -0.83849,-0.273775 -1.61705,-0.854657 z m -26.46955,-6.488859 c -0.009,-0.894447 3.55115,-23.064597 3.73571,-23.265693 0.12465,-0.135819 0.30776,-0.165816 0.40692,-0.06666 0.0992,0.09916 0.9282,5.091845 1.84232,11.094861 0.91412,6.003016 1.72777,11.271762 1.80811,11.708325 l 0.14606,0.79375 h -3.96828 c -2.46742,0 -3.96924,-0.100069 -3.97084,-0.264583 z"
       id="path1058" />
  </g>
</svg>
