<?xml version="1.0" encoding="UTF-8" standalone="no"?>
<!-- Created with Inkscape (http://www.inkscape.org/) -->

<svg
   width="84.619942mm"
   height="141.54037mm"
   viewBox="0 0 84.619942 141.54037"
   version="1.1"
   id="svg5"
   inkscape:version="1.1.1 (3bf5ae0d25, 2021-09-20)"
   sodipodi:docname="pagoda.svg"
   xmlns:inkscape="http://www.inkscape.org/namespaces/inkscape"
   xmlns:sodipodi="http://sodipodi.sourceforge.net/DTD/sodipodi-0.dtd"
   xmlns="http://www.w3.org/2000/svg"
   xmlns:svg="http://www.w3.org/2000/svg">
  <sodipodi:namedview
     id="namedview7"
     pagecolor="#ffffff"
     bordercolor="#666666"
     borderopacity="1.0"
     inkscape:pageshadow="2"
     inkscape:pageopacity="0.0"
     inkscape:pagecheckerboard="0"
     inkscape:document-units="mm"
     showgrid="false"
     inkscape:zoom="0.73940797"
     inkscape:cx="93.994118"
     inkscape:cy="196.10284"
     inkscape:current-layer="layer1" />
  <defs
     id="defs2" />
  <g
     inkscape:label="Layer 1"
     inkscape:groupmode="layer"
     id="layer1"
     transform="translate(-71.122555,-73.728697)">
    <path
       style="fill:#ffffff;stroke-width:1.10435;fill-opacity:1"
       d="m 71.916407,213.7152 c -0.327948,-0.85462 -0.438917,-3.4697 -0.246596,-5.8113 l 0.349675,-4.25743 9.110869,-0.32075 9.11087,-0.32075 v -5.90635 -5.90635 l -4.141304,-0.76781 c -2.277718,-0.4223 -6.521063,-2.05792 -9.429656,-3.6347 l -5.288351,-2.86689 0.3316,-1.73385 0.331601,-1.73386 8.111613,-0.7253 c 4.461388,-0.39891 8.57882,-1.1925 9.149849,-1.76353 l 1.038235,-1.03823 -0.32788,-8.03307 -0.327881,-8.03308 -6.626087,-2.07472 c -3.644348,-1.14109 -7.821809,-3.00523 -9.283248,-4.14252 l -2.657161,-2.06779 0.689892,-1.79784 0.689893,-1.79783 h 6.036681 c 3.320173,0 7.311423,-0.48466 8.869441,-1.07701 l 2.832763,-1.07702 v -8.23158 -8.23158 l -5.797826,-1.71163 c -7.044125,-2.07956 -12.976087,-5.59436 -12.976087,-7.68857 v -1.54551 l 6.35,-0.72396 c 3.4925,-0.39818 7.71663,-0.99188 9.386956,-1.31934 l 3.036957,-0.59538 v -8.61593 -8.615936 l -5.245652,-1.320463 c -2.885109,-0.726255 -7.109239,-2.36763 -9.386957,-3.647502 L 71.467312,92.2528 v -1.846756 -1.846756 l 7.708564,-0.716436 C 89.33892,86.898297 95.723527,84.668405 105.42601,78.674711 l 8.00652,-4.946014 8.00652,4.946014 c 9.70248,5.993694 16.08709,8.223586 26.25013,9.168141 l 7.70857,0.716436 v 1.846756 1.846756 l -4.14131,2.327039 c -2.27772,1.279872 -6.50185,2.921247 -9.38695,3.647502 l -5.24566,1.320463 v 8.615936 8.61593 l 3.03696,0.59538 c 1.67033,0.32746 5.89446,0.92116 9.38696,1.31934 l 6.35,0.72396 v 1.54551 c 0,2.09421 -5.93197,5.60901 -12.97609,7.68857 l -5.79783,1.71163 v 8.23158 8.23158 l 2.83277,1.07702 c 1.55801,0.59235 5.54926,1.07701 8.86944,1.07701 h 6.03668 l 0.6899,1.79783 0.68988,1.79784 -2.65716,2.06779 c -1.46144,1.13729 -5.6389,3.00143 -9.28325,4.14252 l -6.62608,2.07472 -0.32788,8.03308 -0.32788,8.03307 1.03823,1.03823 c 0.57103,0.57103 4.68846,1.36462 9.14985,1.76353 l 8.11161,0.7253 0.3316,1.73386 0.33161,1.73385 -5.28836,2.86689 c -2.90859,1.57678 -7.15194,3.2124 -9.42965,3.6347 l -4.14131,0.76781 v 5.90635 5.90635 l 9.11087,0.32075 9.11087,0.32075 v 5.52174 5.52174 l -41.16644,0.28956 -41.166451,0.28956 z m 79.063943,-3.99482 v -1.10435 H 113.43253 75.884703 v 1.10435 1.10435 h 37.547827 37.54782 z m -44.17391,-9.02391 c 0,-1.3188 0.82246,-3.30663 1.82768,-4.41739 3.72076,-4.11139 11.4245,-1.26205 11.4245,4.22551 v 2.5897 h 6.07391 6.07391 v -5.52174 -5.52174 H 113.43253 94.658616 v 5.52174 5.52174 h 6.073914 6.07391 z m -7.730433,-4.22826 v -2.2087 h 2.208693 2.2087 v 2.2087 2.20869 h -2.2087 -2.208693 z m 24.295653,0 v -2.2087 h 2.20869 2.2087 v 2.2087 2.20869 h -2.2087 -2.20869 z m -7.94067,4.69347 c -0.2047,-1.06293 -1.10401,-1.9326 -1.99846,-1.9326 -0.89445,0 -1.79376,0.86967 -1.99846,1.9326 l -0.37219,1.93261 h 2.37065 2.37065 z m 26.16241,-15.67427 2.20869,-0.88644 -4.96956,-1.2963 c -7.56575,-1.97351 -10.9726,-3.43883 -18.49783,-7.95608 l -6.90217,-4.14324 -6.90217,4.14324 c -7.525232,4.51725 -10.932077,5.98257 -18.497831,7.95608 l -4.969565,1.2963 2.208696,0.88644 c 1.214782,0.48754 13.887174,0.88643 28.16087,0.88643 14.27369,0 26.94609,-0.39889 28.16087,-0.88643 z m -33.96483,-16.40004 5.80396,-3.85361 5.80396,3.85361 c 3.19218,2.11949 7.41631,4.6874 9.38696,5.70646 l 3.58299,1.85283 v -7.75879 -7.75879 H 113.43253 94.658616 v 7.75879 7.75879 l 3.582994,-1.85283 c 1.97065,-1.01906 6.19478,-3.58697 9.38696,-5.70646 z m -8.552563,-3.5409 v -2.2087 h 2.208693 2.2087 v 2.2087 2.20869 h -2.2087 -2.208693 z m 24.295653,0 v -2.2087 h 2.20869 2.2087 v 2.2087 2.20869 h -2.2087 -2.20869 z m 18.77391,-10.77986 2.76087,-1.22797 -1.81628,-0.07 c -4.57245,-0.17622 -16.64171,-4.86141 -22.83511,-8.8644 l -6.82252,-4.40961 -6.65615,4.30208 c -6.6132,4.27432 -18.286487,8.90193 -22.455385,8.90193 -1.198077,0 -1.915643,0.26268 -1.594594,0.58373 1.799021,1.79902 12.881179,2.56174 33.466999,2.30333 l 23.1913,-0.29112 z m -38.00469,-14.04434 c 4.19932,-2.72026 8.38056,-4.94593 9.29165,-4.94593 0.91109,0 5.09233,2.22567 9.29165,4.94593 4.19932,2.72027 8.05074,4.94594 8.5587,4.94594 0.50796,0 0.92356,-3.4787 0.92356,-7.73044 v -7.73043 H 113.43253 94.658616 v 7.73043 c 0,4.25174 0.415604,7.73044 0.923564,7.73044 0.50796,0 4.359373,-2.22567 8.5587,-4.94594 z m -4.645218,-4.38814 c -0.786535,-2.04967 0.360998,-3.9181 2.406388,-3.9181 h 1.59135 v 2.76087 2.76087 h -1.69118 c -0.93015,0 -1.968102,-0.72164 -2.306558,-1.60364 z m 23.875998,-1.15723 v -2.92282 l 1.93261,0.37219 1.93261,0.37219 v 2.17844 2.17845 l -1.93261,0.37219 -1.93261,0.37218 z m 17.11739,-10.71569 4.41739,-1.31641 -2.76087,-0.37111 c -5.21331,-0.70075 -16.01848,-5.0222 -21.83231,-8.73167 -3.2006,-2.04212 -6.29693,-3.71294 -6.88073,-3.71294 -0.5838,0 -3.68013,1.67082 -6.88073,3.71294 -5.79234,3.69576 -16.571971,8.01321 -21.832314,8.74426 l -2.76087,0.38368 3.865218,1.2104 3.865217,1.21039 23.191309,0.0934 23.1913,0.0934 4.41739,-1.31641 z m -38.03503,-13.36534 c 3.30492,-2.00783 7.1271,-4.36367 8.49373,-5.23521 l 2.48478,-1.58462 2.48478,1.58462 c 7.4709,4.76441 14.6118,8.88581 15.3959,8.88581 0.49128,0 0.89323,-3.4787 0.89323,-7.73044 V 99.285599 H 113.43253 94.658616 v 7.730431 c 0,4.25174 0.401953,7.73044 0.893228,7.73044 0.491275,0 3.597254,-1.64277 6.902176,-3.6506 z m -3.378013,-6.28853 v -2.2087 h 2.208693 2.2087 v 2.2087 2.20869 h -2.2087 -2.208693 z m 24.295653,0 v -2.2087 h 2.20869 2.2087 v 2.2087 2.20869 h -2.2087 -2.20869 z m 17.66956,-11.00155 2.76087,-0.842256 -1.65652,-0.562728 c -0.91108,-0.309501 -4.40769,-1.363695 -7.77022,-2.342654 -3.36254,-0.978958 -9.45026,-3.792292 -13.52826,-6.251852 l -7.41456,-4.471929 -7.41456,4.471929 c -4.078,2.45956 -10.165722,5.272894 -13.528259,6.251852 -3.362537,0.978959 -6.859138,2.033153 -7.770225,2.342654 l -1.656522,0.562728 2.76087,0.842256 c 3.596574,1.097202 51.620816,1.097202 55.217386,0 z"
       id="path1262" />
  </g>
</svg>
