<svg id="Capa_1" enable-background="new 0 0 511.977 511.977" height="512" viewBox="0 0 511.977 511.977" width="512" xmlns="http://www.w3.org/2000/svg"><g><path d="m498.237 366.527-114.499-114.527c21.484-48.774 12.291-107.913-27.594-147.808-51.966-51.978-136.081-51.985-188.053 0-51.844 51.856-51.844 136.232 0 188.088 41.198 41.207 101.574 49.053 149.773 26.771l113.914 113.941c18.366 18.37 48.097 18.372 66.463-.004 18.316-18.324 18.314-48.138-.004-66.461zm-308.931-95.458c-40.151-40.16-40.151-105.505 0-145.666 40.24-40.25 105.375-40.257 145.622 0 40.151 40.161 40.151 105.506 0 145.666-40.241 40.251-105.376 40.257-145.622 0zm287.717 140.711c-6.64 6.643-17.388 6.646-24.03.001l-108.834-108.86c8.946-7.042 16.919-15.128 23.842-24.23l109.02 109.046c6.627 6.629 6.628 17.414.002 24.043z"/><path d="m15 244.947h63.962c8.284 0 15-6.716 15-15s-6.716-15-15-15h-63.962c-8.284 0-15 6.716-15 15s6.716 15 15 15z"/><path d="m15 308.947h87.948c8.284 0 15-6.716 15-15s-6.716-15-15-15h-87.948c-8.284 0-15 6.716-15 15s6.716 15 15 15z"/><path d="m15 372.947h151.911c8.284 0 15-6.716 15-15s-6.716-15-15-15h-151.911c-8.284 0-15 6.716-15 15s6.716 15 15 15z"/><path d="m342.809 406.947h-327.809c-8.284 0-15 6.716-15 15s6.716 15 15 15h327.809c8.284 0 15-6.716 15-15s-6.716-15-15-15z"/></g></svg>