<?xml version="1.0" encoding="UTF-8" standalone="no"?>
<svg
   xmlns:dc="http://purl.org/dc/elements/1.1/"
   xmlns:cc="http://creativecommons.org/ns#"
   xmlns:rdf="http://www.w3.org/1999/02/22-rdf-syntax-ns#"
   xmlns:svg="http://www.w3.org/2000/svg"
   xmlns="http://www.w3.org/2000/svg"
   xmlns:sodipodi="http://sodipodi.sourceforge.net/DTD/sodipodi-0.dtd"
   xmlns:inkscape="http://www.inkscape.org/namespaces/inkscape"
   sodipodi:docname="soviet.svg"
   inkscape:version="1.0rc1 (09960d6f05, 2020-04-09)"
   id="svg8"
   version="1.1"
   viewBox="0 0 67.413651 89.145462"
   height="89.145462mm"
   width="67.413651mm">
  <defs
     id="defs2" />
  <sodipodi:namedview
     showgrid="false"
     inkscape:document-rotation="0"
     inkscape:current-layer="layer1"
     inkscape:document-units="mm"
     inkscape:cy="169.79841"
     inkscape:cx="147.11291"
     inkscape:zoom="1.979899"
     inkscape:pageshadow="2"
     inkscape:pageopacity="0.0"
     borderopacity="1.0"
     bordercolor="#666666"
     pagecolor="#ffffff"
     id="base" />
  <metadata
     id="metadata5">
    <rdf:RDF>
      <cc:Work
         rdf:about="">
        <dc:format>image/svg+xml</dc:format>
        <dc:type
           rdf:resource="http://purl.org/dc/dcmitype/StillImage" />
        <dc:title></dc:title>
      </cc:Work>
    </rdf:RDF>
  </metadata>
  <g
     transform="translate(422.12868,-55.848268)"
     id="layer1"
     inkscape:groupmode="layer"
     inkscape:label="Layer 1">
    <path
       sodipodi:nodetypes="cssssssssssssscscsssssssssssssssscssssssssssssssssssscsssssssssssssssssssssssssssssssssssssssssscsssssssssssssssssssssssssssssssssssssscscsssscssssssssssssssccss"
       inkscape:connector-curvature="0"
       transform="scale(0.26458333)"
       d="m -1579.4238,211.08008 c -3.4218,0.006 -0.1656,2.2537 9.623,5.94726 23.5352,8.88057 34.4672,20.24493 30.2207,31.41407 -2.7108,7.12993 -20.0159,10.43304 -21.5996,4.12304 -0.333,-1.32615 -1.4651,-3.18795 -2.5156,-4.13867 -3.0222,-2.73507 -2.4825,-5.41797 1.0898,-5.41797 3.5731,0 3.5514,0.14998 0.8907,-6.03515 -2.881,-6.69698 -8.6833,-10.23011 -15.3067,-9.32227 -4.5847,0.62841 -4.584,0.62775 -4.584,5.57227 0,4.84439 0.082,4.97785 4.0215,6.52539 4.9425,1.94146 6.0872,5.11309 3.4531,9.57226 -2.265,3.83435 -2.3149,10.19253 -0.1113,14.4375 2.0042,3.86068 2.8783,4.03579 4.5469,0.91797 2.9436,-5.50015 11.8141,-7.35405 17.7793,-3.7168 7.9367,4.83936 20.3272,-5.0247 20.3008,-16.1621 -0.034,-14.14806 -15.3115,-26.79039 -38.9903,-32.25977 -4.3277,-0.99964 -7.263,-1.45954 -8.8183,-1.45703 z m 19.8496,54.91406 c -3.5812,0.1303 -6.0313,3.97606 -6.0313,10.85547 0,5.29623 2.401,8.337 6.2832,7.95898 3.7803,-0.36808 4.0403,0.5489 5.6661,19.90625 1.2722,15.1477 2.8041,20.36985 7.416,25.29297 1.8033,1.925 4.0978,4.85 5.0996,6.5 1.0017,1.65 4.5688,6.74235 7.9277,11.31641 6.107,8.31648 6.1074,8.31648 6.6074,-6.5 0.5,-14.81648 0.4997,-14.81731 -2.6933,-18.91602 -1.7561,-2.25428 -3.5081,-5.40428 -3.8946,-7 -0.3864,-1.59571 -2.6623,-6.82876 -5.0566,-11.6289 -2.3942,-4.80014 -5.6502,-13.50228 -7.2363,-19.33789 -2.4501,-9.01383 -3.4597,-11.19785 -6.7051,-14.52149 -2.679,-2.74357 -5.2341,-4.00396 -7.3828,-3.92578 z m -4.543,25.19727 c -0.3006,-0.008 -0.6291,0.0516 -0.9883,0.16601 -0.5947,0.18947 -0.9916,5.14848 -0.9765,12.23438 0.019,10.21344 0.3292,12.49201 2.1601,15.94922 2.0085,3.79268 2.0522,4.35624 0.7266,9.46679 -0.7754,2.98908 -1.4102,8.51791 -1.4102,12.28516 0,6.84955 0,6.84873 4.25,6.53125 4.2502,-0.31748 4.2496,-0.31729 4.5645,4.08594 0.373,5.21272 -1.2549,10.55479 -6.9043,22.66015 -7.9273,16.98635 -7.5168,24.72472 2.0547,38.8086 5.3947,7.9381 5.7398,9.10818 4.6738,15.82421 -0.5427,3.41934 -0.3379,5.48419 0.752,7.5918 1.497,2.89489 1.4978,2.89428 -7.1075,12.30274 -10.5512,11.53613 -17.673,22.19673 -19.2675,28.84375 -1.0138,4.22558 -0.8755,7.41028 0.875,20.28906 1.142,8.40204 2.1947,19.32733 2.3418,24.27734 0.2672,9 0.2677,8.9985 -6.4258,12.19727 -6.8074,3.25326 -9.1374,5.63039 -10.3477,10.55273 -0.6434,2.61695 -0.5001,2.75 2.9336,2.75 2.4398,0 3.6074,-0.458 3.6074,-1.41211 0,-2.40415 5.5734,-6.25306 13.2012,-9.11718 4.0149,-1.50754 7.6932,-3.09709 8.1758,-3.53321 0.4971,-0.44919 -0.081,-5.91768 -1.334,-12.61523 -4.2565,-22.74395 -4.2176,-44.1391 0.096,-52.59375 1.1589,-2.27157 9.9179,-11.87035 19.7598,-21.6543 19.3378,-19.224 20.7128,-21.35961 21.7832,-33.80469 0.4375,-5.08622 0.072,-6.69675 -3.0918,-13.57617 -1.9741,-4.29294 -3.5899,-8.39627 -3.5899,-9.11914 0,-0.72291 -0.9223,-4.18613 -2.0507,-7.69531 -2.2817,-7.09518 -1.9963,-11.32993 1.125,-16.6875 2.69,-4.61744 2.5341,-5.27763 -2.9024,-12.38281 -2.6553,-3.47037 -6.127,-8.3336 -7.7148,-10.8086 -1.5879,-2.475 -4.346,-6.16736 -6.1289,-8.20508 -6.7321,-7.69381 -7.9948,-11.75089 -9.2403,-29.67578 -0.7328,-10.54691 -1.4953,-13.88064 -3.5996,-13.93554 z m 61.8418,24.31445 c -8.0225,0 -11.3334,1.65456 -14.6504,7.31836 -2.1726,3.70982 -3.7696,13.85504 -2.9629,18.82617 0.5774,3.55765 0.5769,3.55798 7.1797,2.92773 6.6029,-0.63024 6.6042,-0.63107 4.0625,1.64844 -1.398,1.25373 -3.7401,4.0793 -5.2031,6.2793 -1.463,2.2 -5.5881,7.1207 -9.168,10.93359 -7.7598,8.26487 -8.4494,10.52566 -5.666,18.56836 1.1434,3.3038 2.0781,6.61601 2.0781,7.36133 0,0.74536 1.575,4.76524 3.5,8.93164 3.7752,8.17081 4.2279,12.14342 2.3848,20.90625 -2.3994,11.40771 -5.0648,15.17398 -23.9492,33.83789 -15.0731,14.89716 -17.9182,18.18732 -18.9043,21.84961 -1.8396,6.8315 -1.3164,26.31152 1.0683,39.71875 3.5404,19.90405 3.5755,21.71697 0.4571,24.16992 -1.4656,1.15283 -5.5,3.04034 -8.9649,4.19336 -13.1588,4.379 -12.0873,4.96403 9.1582,4.99805 18.7978,0.0302 19.25,-0.0144 19.25,-2.0332 0,-1.13617 -0.4977,-2.99515 -1.1054,-4.13086 -1.4616,-2.73098 -1.2094,-16.20301 0.5019,-26.80274 0.7548,-4.67501 1.2835,-8.60505 1.1738,-8.73242 -0.1099,-0.12737 -2.6454,-0.59188 -5.6347,-1.03125 -5.4351,-0.79888 -5.4356,-0.79866 1.0644,-2.75781 9.5283,-2.87191 35.0669,-2.71483 51,0.3125 34.3599,6.52868 72.171,9.91338 81.6778,7.3125 4.6383,-1.26898 9.7063,-7.02585 10.8769,-12.35547 0.7624,-3.47104 -0.5369,-4.7117 -4.9668,-4.73438 -2.9121,-0.0151 -2.9121,-0.0151 1.5,-4.50781 2.4936,-2.53893 5.3436,-4.49622 6.5547,-4.5 2.6136,-0.008 3.3591,-1.75058 3.3516,-7.83789 -0.019,-14.64775 -2.4482,-16.07959 -32.5801,-19.18164 -20.3469,-2.09465 -34.4908,-4.65796 -43.4141,-7.86523 -5.5,-1.977 -5.4991,-1.97589 6.1016,-2.04883 11.6006,-0.0729 11.6006,-0.0723 10.8281,-4.95899 -1.5805,-9.99862 -7.4025,-18.16763 -20.4004,-28.62109 -6.9566,-5.59483 -8.622,-7.47181 -9.1582,-10.33008 -0.7335,-3.91026 0.9836,-14.68228 3.1778,-19.93359 1.7681,-4.23186 1.2389,-5.21167 -2.8575,-5.29297 -3.1822,-0.0631 -3.1846,-0.0667 -0.6914,-1.17188 4.2822,-1.89849 22.4876,-1.27848 32.334,1.10157 18.221,4.4043 23.463,3.96914 42.5625,-3.53321 11.3956,-4.4762 11.3956,-4.47471 17,-2.01367 8.3278,3.65696 12.8322,4.90174 15.1133,4.17774 1.9314,-0.61301 1.8755,-0.80301 -1.043,-3.5293 -3.6202,-3.38177 -2.8625,-6.52718 1.8125,-7.52539 4.1521,-0.88655 7.2207,-2.29762 7.2207,-3.32031 0,-1.44007 -24.4422,-2.48825 -34.4707,-1.47852 -4.9656,0.49997 -19.6043,0.89718 -32.5293,0.88281 -23.5,-0.0261 -23.4989,-0.0275 -30.6972,-3.77734 -6.4744,-3.37288 -7.9636,-3.75 -14.7989,-3.75 -8.2546,0 -11.6961,-1.99651 -12.7265,-7.38672 -0.4317,-2.25811 -0.1736,-2.35831 7.6367,-2.91992 13.8979,-0.99935 22.4616,-4.7901 22.8672,-10.12305 0.1795,-2.35875 -0.2679,-3.01051 -2.4883,-3.625 -1.4884,-0.41193 -8.2347,-3.8292 -14.9922,-7.5957 -12.0001,-6.68862 -12.454,-6.84961 -19.4707,-6.84961 z m 138.6953,46.50195 c -2.7233,0 -3.78,0.52441 -4.5371,2.25 -0.5429,1.2375 -2.0008,2.69341 -3.2383,3.23633 -3.2435,1.42302 -2.7739,4.05421 1,5.60352 1.7875,0.73383 5.3548,3.29315 7.9258,5.6875 2.571,2.39436 5.9461,4.73493 7.5,5.20117 3.4038,1.02126 10.5528,1.25421 12.7422,0.41406 2.1814,-0.83709 1.9897,-2.39258 -0.2949,-2.39258 -2.6573,0 -4.3261,-2.3649 -6.6231,-9.38672 -1.7988,-5.49909 -2.4477,-6.33954 -6.4609,-8.36328 -2.454,-1.2375 -6.0606,-2.25 -8.0137,-2.25 z m -37.0644,16.11719 c -2.2837,-0.003 -4.5824,0.65169 -7.627,1.96289 -16.7778,7.22778 -25.4187,8.28544 -39.7949,4.87109 -4.7403,-1.1258 -12.5125,-2.13812 -17.2715,-2.25 -8.6527,-0.20296 -8.6526,-0.20298 -11.4433,5.29688 -3.4763,6.851 -3.4823,7.39389 -0.074,6.48242 1.5125,-0.40452 5.6751,-1.01695 9.25,-1.35937 3.575,-0.34243 10.55,-0.36442 15.5,-0.0488 4.9733,0.3171 13.6979,0.0159 19.5,-0.66992 5.775,-0.6844 16.575,-1.76453 24,-2.40039 14.9831,-1.28315 20.4193,-2.26798 25.8418,-4.67969 3.6589,-1.62735 3.6587,-1.62715 -0.9707,-2.375 -2.5461,-0.41133 -6.7657,-1.6926 -9.3769,-2.84766 -2.9814,-1.3188 -5.2496,-1.97959 -7.5332,-1.98242 z m -107.7793,135.04492 c -1.7486,0.0401 -0.1691,0.91007 4.3183,2.70508 10.2416,4.09674 13.4848,6.19106 24.793,16.00195 10.2068,8.85532 10.2062,8.85576 20.0117,10.59571 7.2943,1.29433 10.1106,2.2251 10.9922,3.63672 1.0386,1.66325 2.4515,1.89843 11.4434,1.89843 5.6427,0 10.2597,-0.41382 10.2597,-0.91797 0,-0.50419 -0.3776,-1.06669 -0.8398,-1.25 -0.4622,-0.1833 -6.3454,-6.29453 -13.0723,-13.58203 -12.2308,-13.24826 -12.2293,-13.24842 -17.4082,-13.25976 -6.2753,-0.0113 -27.8388,-2.40523 -40.1797,-4.45899 -5.5854,-0.9295 -8.9584,-1.40034 -10.3183,-1.36914 z"
       style="display:inline;fill:#000000;stroke-width:0.999999"
       id="path849" />
  </g>
</svg>
