<?xml version="1.0" encoding="UTF-8" standalone="no"?>
<!-- Generator: Adobe Illustrator 13.0.2, SVG Export Plug-In . SVG Version: 6.00 Build 14948)  -->

<svg
   version="1.0"
   id="Layer_1"
   x="0px"
   y="0px"
   width="64px"
   height="64px"
   viewBox="5.5 -3.5 64 64"
   enable-background="new 5.5 -3.5 64 64"
   xml:space="preserve"
   sodipodi:docname="by.svg"
   inkscape:version="1.1.1 (3bf5ae0d25, 2021-09-20)"
   xmlns:inkscape="http://www.inkscape.org/namespaces/inkscape"
   xmlns:sodipodi="http://sodipodi.sourceforge.net/DTD/sodipodi-0.dtd"
   xmlns="http://www.w3.org/2000/svg"
   xmlns:svg="http://www.w3.org/2000/svg"><defs
   id="defs13" /><sodipodi:namedview
   id="namedview11"
   pagecolor="#ffffff"
   bordercolor="#666666"
   borderopacity="1.0"
   inkscape:pageshadow="2"
   inkscape:pageopacity="0.0"
   inkscape:pagecheckerboard="0"
   showgrid="false"
   inkscape:zoom="12.96875"
   inkscape:cx="31.961446"
   inkscape:cy="32"
   inkscape:current-layer="g8" />
<g
   id="g8"
   style="display:inline">
	
	
<path
   style="display:inline;fill:#c2c2c2;fill-opacity:1;stroke:none;stroke-width:0.408675;stroke-linejoin:round;stroke-miterlimit:10"
   d="M 30.457831,63.919591 C 22.495582,63.599082 15.417703,60.426915 9.4773729,54.516561 3.5436432,48.612774 0.37160336,41.505456 0.09056196,33.484337 -0.07014248,28.89772 0.51237041,24.895484 1.8976513,21.068477 4.7334337,13.234283 11.140435,6.2583715 18.660037,2.8176729 23.127566,0.77349313 27.920103,-0.11000161 33.46506,0.088396 c 6.194721,0.22164604 11.878559,2.0674278 16.655422,5.4087181 5.18397,3.6260512 9.335014,8.7463149 11.546641,14.2426449 1.709256,4.247839 2.417819,8.586159 2.244177,13.740424 -0.203911,6.052766 -1.894409,11.421101 -5.082229,16.139094 -1.910317,2.827281 -4.779088,5.788499 -7.821842,8.073906 -4.975776,3.737295 -11.1276,5.96602 -17.089813,6.191414 -0.609278,0.02303 -1.33332,0.05255 -1.608982,0.0656 -0.275663,0.01304 -1.108434,-6.94e-4 -1.850603,-0.0306 z m 4.780723,-5.896054 c 4.80851,-0.565079 9.26314,-2.448439 13.121737,-5.547702 6.67432,-5.360878 9.869807,-11.959578 9.878289,-20.398727 0.002,-1.979015 -0.08845,-3.16138 -0.369003,-4.824256 C 57.14219,22.941549 55.43231,19.153707 52.635693,15.658401 51.717882,14.51129 49.791676,12.552985 48.655422,11.611802 45.401626,8.9166149 41.691614,7.1194391 37.66747,6.2891017 34.289919,5.5921818 30.151896,5.5643357 26.795181,6.2159384 21.756465,7.1940496 17.484219,9.4956345 13.721839,13.258933 c -4.3032597,4.30431 -6.8923092,9.297256 -7.7032025,14.855519 -0.6616934,4.535572 -0.1516923,9.236731 1.4378727,13.254223 1.3026974,3.292458 3.1127428,6.031633 5.8014688,8.779466 2.337914,2.38931 4.6029,4.078565 7.252865,5.409276 2.967221,1.490024 6.201799,2.345907 9.86988,2.611611 0.862479,0.06247 3.849384,-0.02698 4.857831,-0.145491 z"
   id="path867"
   transform="translate(5.5,-3.5)" /><path
   style="display:inline;fill:#c2c2c2;fill-opacity:1;stroke:none;stroke-width:0.408675;stroke-linejoin:round;stroke-miterlimit:10"
   d="m 27.06506,44.877108 v -7.787951 h -1.812048 -1.812048 l 0.0017,-6.766265 c 0.0019,-7.635665 -0.04182,-7.083587 0.611394,-7.717515 0.597128,-0.579493 0.206028,-0.552455 7.978962,-0.551612 l 6.9453,7.54e-4 0.385542,0.179918 c 0.426035,0.198814 0.920061,0.697336 1.087011,1.096903 0.09003,0.215462 0.10817,1.391049 0.10817,7.008352 v 6.749465 H 38.746988 36.93494 v 7.787951 7.787952 H 32 27.06506 Z"
   id="path1165"
   transform="translate(5.5,-3.5)" /><path
   style="display:inline;fill:#c2c2c2;fill-opacity:1;stroke:none;stroke-width:0.409;stroke-linejoin:round;stroke-miterlimit:4;stroke-dasharray:none"
   d="m 31.249978,20.201325 c -1.792562,-0.192745 -2.929941,-1.040732 -3.411509,-2.543494 -0.142602,-0.444996 -0.19293,-0.802848 -0.21832,-1.552318 -0.07447,-2.198204 0.577298,-3.578834 2.011458,-4.260854 C 30.37485,11.491207 30.938149,11.380908 32,11.380908 c 1.061851,0 1.62515,0.110299 2.368393,0.463751 1.363586,0.648458 2.026788,1.957962 2.026788,4.001929 0,1.702997 -0.465147,2.840525 -1.470377,3.59584 -0.821426,0.617208 -2.249603,0.912144 -3.674826,0.758897 z"
   id="path1204"
   transform="translate(5.5,-3.5)" /></g>
</svg>
